<svg xmlns="http://www.w3.org/2000/svg" version="1.0" width="512.000000pt" height="512.000000pt" viewBox="0 0 512.000000 512.000000" preserveAspectRatio="xMidYMid meet">

<g transform="translate(0.000000,512.000000) scale(0.100000,-0.100000)" fill="#ececec" stroke="none">
<path d="M2981 5109 c-134 -26 -288 -145 -351 -270 -84 -166 -72 -364 32 -518 61 -91 174 -176 268 -201 l40 -11 0 -167 c0 -185 8 -231 47 -262 35 -27 101 -27 136 0 39 31 47 77 47 262 l0 168 28 6 c50 12 163 77 207 119 128 125 186 306 151 473 -57 274 -330 455 -605 401z m219 -241 c219 -94 228 -409 14 -518 -69 -35 -188 -36 -254 -2 -103 54 -151 128 -158 242 -4 68 -1 85 21 131 69 150 228 211 377 147z" fill="#ececec"/>
<path d="M3022 4703 c-93 -45 -73 -180 30 -202 105 -23 186 62 143 152 -29 61 -106 83 -173 50z" fill="#ececec"/>
<path d="M1967 5029 c-94 -22 -173 -91 -225 -196 -36 -72 -43 -101 -82 -332 -30 -179 -30 -184 -13 -219 10 -20 33 -45 52 -56 31 -18 37 -18 74 -5 65 23 74 43 112 268 27 158 41 214 62 254 40 75 54 77 225 39 181 -41 192 -40 234 2 28 28 34 42 34 76 0 83 -21 97 -216 139 -175 37 -210 42 -257 30z" fill="#ececec"/>
<path d="M3812 4600 c-35 -22 -52 -54 -52 -102 0 -24 13 -43 59 -90 33 -32 65 -74 70 -91 6 -18 49 -292 96 -609 46 -317 90 -586 97 -598 16 -26 61 -47 223 -105 157 -57 238 -98 256 -131 11 -21 -4 -142 -120 -937 -73 -501 -139 -935 -147 -963 -17 -63 -60 -108 -123 -129 -86 -28 -1744 -385 -1763 -379 -41 13 -86 103 -103 208 -9 57 -52 96 -105 96 -28 0 -266 -81 -787 -270 -410 -148 -757 -270 -770 -270 -30 0 -79 48 -89 86 -9 33 497 3098 528 3201 18 61 43 94 107 143 27 20 34 34 38 72 5 44 3 50 -30 83 -27 27 -43 35 -71 35 -51 0 -103 -29 -158 -88 -52 -56 -78 -102 -102 -182 -9 -30 -136 -770 -282 -1645 -242 -1449 -264 -1595 -255 -1642 22 -112 99 -216 196 -263 39 -20 65 -25 120 -24 66 1 113 16 750 248 374 137 687 250 696 253 13 4 25 -13 50 -62 62 -126 168 -205 276 -205 52 0 1748 365 1829 394 128 45 215 130 259 255 8 23 78 475 155 1004 153 1050 150 1010 97 1095 -56 88 -150 146 -360 222 -92 34 -118 47 -122 64 -3 12 -39 255 -80 541 -42 286 -82 540 -90 564 -32 96 -115 195 -190 227 -46 19 -64 18 -103 -6z" fill="#ececec"/>
<path d="M1844 3995 c-134 -29 -282 -140 -346 -261 -77 -143 -77 -326 -2 -476 52 -102 176 -208 293 -249 l46 -16 5 -189 c6 -216 12 -235 79 -255 32 -9 44 -9 75 6 60 29 66 50 66 255 0 180 0 182 22 188 13 3 57 23 99 44 170 85 279 262 279 453 0 239 -173 451 -409 501 -80 17 -127 17 -207 -1z m222 -239 c109 -51 168 -142 168 -261 0 -85 -24 -145 -81 -202 -52 -52 -105 -76 -181 -81 -81 -6 -137 11 -198 57 -134 101 -148 306 -29 426 56 56 126 85 205 85 47 0 79 -7 116 -24z" fill="#ececec"/>
<path d="M1901 3597 c-45 -16 -73 -55 -73 -102 0 -103 137 -151 214 -75 56 56 28 158 -50 180 -45 12 -48 12 -91 -3z" fill="#ececec"/>
<path d="M3160 2513 c-99 -16 -214 -78 -288 -154 -151 -154 -186 -393 -86 -591 41 -80 136 -173 223 -216 42 -21 86 -41 99 -44 22 -6 22 -8 22 -188 0 -196 6 -224 54 -250 33 -17 79 -17 111 0 47 25 55 62 55 258 l0 180 33 7 c65 15 152 68 218 134 165 166 197 411 79 612 -106 179 -324 285 -520 252z m196 -247 c109 -51 168 -142 168 -261 1 -162 -123 -285 -286 -285 -168 0 -304 150 -284 314 12 106 96 214 190 244 60 19 157 14 212 -12z" fill="#ececec"/>
<path d="M3191 2107 c-45 -16 -73 -55 -73 -102 0 -48 29 -87 77 -103 51 -17 99 -6 135 30 57 57 30 156 -48 178 -45 12 -48 12 -91 -3z" fill="#ececec"/>
</g>
</svg>