<svg xmlns="http://www.w3.org/2000/svg" version="1.0" width="512.000000pt" height="512.000000pt" viewBox="0 0 512.000000 512.000000" preserveAspectRatio="xMidYMid meet">

<g transform="translate(0.000000,512.000000) scale(0.100000,-0.100000)" fill="#ececec" stroke="none">
<path d="M4243 4462 c-100 -35 -170 -101 -216 -199 l-22 -48 0 -1655 0 -1655 27 -57 c34 -73 103 -142 176 -176 56 -27 60 -27 272 -27 l215 0 67 33 c77 37 128 90 167 172 l26 55 0 1655 0 1655 -27 57 c-34 73 -103 142 -176 176 -55 26 -64 27 -257 30 -173 2 -207 0 -252 -16z" fill="#ececec"/>
<path d="M1683 3502 c-100 -35 -170 -101 -216 -199 l-22 -48 0 -1175 0 -1175 27 -57 c34 -73 103 -142 176 -176 56 -27 60 -27 272 -27 l215 0 67 33 c77 37 128 90 167 172 l26 55 0 1175 0 1175 -26 55 c-39 82 -90 135 -167 172 l-66 33 -201 3 c-173 2 -207 0 -252 -16z" fill="#ececec"/>
<path d="M2963 2862 c-100 -35 -170 -101 -216 -199 l-22 -48 0 -855 0 -855 27 -57 c34 -73 103 -142 176 -176 56 -27 60 -27 272 -27 l215 0 67 33 c77 37 128 90 167 172 l26 55 0 855 0 855 -27 57 c-34 73 -103 142 -176 176 -55 26 -64 27 -257 30 -173 2 -207 0 -252 -16z" fill="#ececec"/>
<path d="M403 2222 c-100 -35 -170 -101 -216 -199 -22 -48 -22 -51 -22 -583 l0 -535 27 -57 c34 -73 103 -142 176 -176 56 -27 60 -27 272 -27 l215 0 67 33 c77 37 128 90 167 172 l26 55 0 535 0 535 -27 57 c-34 73 -103 142 -176 176 -55 26 -64 27 -257 30 -173 2 -207 0 -252 -16z" fill="#ececec"/>
</g>
</svg>