<svg xmlns="http://www.w3.org/2000/svg" version="1.0" width="512.000000pt" height="512.000000pt" viewBox="0 0 512.000000 512.000000" preserveAspectRatio="xMidYMid meet">

<g transform="translate(0.000000,512.000000) scale(0.100000,-0.100000)" fill="#ececec" stroke="none">
<path d="M2415 5104 c-38 -8 -112 -36 -164 -61 -78 -37 -109 -59 -177 -127 -68 -68 -90 -99 -127 -177 -83 -171 -77 -8 -77 -2179 0 -2169 -6 -2009 76 -2178 37 -76 60 -108 127 -175 68 -69 98 -91 177 -130 203 -99 405 -101 605 -8 144 68 261 186 331 336 68 146 64 18 64 2155 0 2173 6 2010 -77 2179 -38 76 -62 110 -128 177 -67 68 -96 89 -175 127 -153 74 -300 93 -455 61z m235 -400 c41 -12 67 -29 111 -73 98 -98 89 102 89 -2071 0 -2173 9 -1973 -89 -2071 -85 -85 -176 -107 -291 -73 -41 12 -67 29 -111 73 -98 98 -89 -102 -89 2071 0 2173 -9 1973 89 2071 85 84 176 107 291 73z" fill="#ececec"/>
<path d="M4280 3634 c-36 -7 -108 -35 -160 -60 -77 -38 -110 -62 -176 -129 -68 -67 -90 -98 -127 -176 -82 -168 -78 -93 -75 -1479 l3 -1225 27 -80 c65 -191 185 -329 363 -415 194 -94 400 -92 604 7 78 37 109 59 177 127 68 68 90 99 127 177 81 167 77 95 77 1444 0 1346 3 1280 -75 1440 -138 284 -454 436 -765 369z m277 -412 c57 -30 111 -85 137 -141 21 -46 21 -47 24 -1235 3 -1367 10 -1260 -87 -1357 -44 -44 -70 -61 -111 -73 -116 -34 -206 -12 -291 73 -97 97 -90 -10 -87 1357 l3 1189 23 46 c31 63 96 125 157 149 66 27 172 23 232 -8z" fill="#ececec"/>
<path d="M522 2160 c-94 -25 -147 -49 -219 -98 -153 -105 -264 -277 -292 -452 -7 -39 -11 -251 -11 -523 0 -529 3 -555 77 -707 38 -78 61 -109 128 -176 67 -68 98 -90 176 -127 209 -101 408 -102 617 -1 161 78 287 225 350 409 l27 80 3 489 c4 565 1 591 -73 742 -80 165 -223 290 -400 350 -109 37 -275 43 -383 14z m295 -408 c57 -30 111 -85 137 -141 20 -44 21 -62 24 -500 3 -537 4 -530 -87 -622 -44 -44 -70 -61 -111 -73 -115 -34 -206 -12 -291 73 -90 90 -89 84 -89 608 0 413 1 446 19 493 34 90 87 142 180 177 52 19 166 11 218 -15z" fill="#ececec"/>
</g>
</svg>