<svg xmlns="http://www.w3.org/2000/svg" version="1.0" width="512.000000pt" height="512.000000pt" viewBox="0 0 512.000000 512.000000" preserveAspectRatio="xMidYMid meet">

<g transform="translate(0.000000,512.000000) scale(0.100000,-0.100000)" fill="#ececec" stroke="none">
<path d="M1045 4413 c-392 -53 -704 -331 -796 -709 -31 -125 -31 -305 -1 -428 50 -200 164 -381 319 -506 l72 -58 -62 -31 c-107 -52 -189 -112 -277 -201 -101 -100 -169 -199 -222 -323 -67 -155 -78 -220 -78 -478 0 -224 0 -226 23 -247 13 -13 39 -27 58 -32 37 -11 989 -14 1052 -3 23 3 50 18 68 35 24 24 29 38 29 77 0 27 -7 56 -16 70 -35 50 -50 51 -540 51 l-457 0 6 118 c13 246 93 431 253 583 106 100 200 153 341 195 73 21 119 27 278 34 105 4 201 12 215 18 64 26 96 102 66 160 -28 53 -62 64 -179 57 -135 -9 -231 10 -356 72 -79 38 -110 61 -182 132 -74 73 -93 100 -132 181 -59 124 -72 181 -72 315 1 192 63 343 200 481 120 122 242 182 411 205 257 34 517 -87 664 -309 64 -96 83 -111 138 -112 37 0 50 6 78 34 28 28 34 41 34 77 0 97 -183 314 -348 413 -171 102 -405 154 -587 129z" fill="#ececec"/>
<path d="M3785 4405 c-252 -46 -477 -197 -614 -410 -65 -102 -69 -149 -17 -201 28 -28 42 -34 76 -34 23 0 50 4 60 10 10 5 43 48 74 94 136 204 344 316 585 316 119 0 203 -19 306 -70 142 -69 246 -173 315 -315 57 -117 73 -195 67 -340 -3 -103 -8 -132 -35 -203 -77 -207 -236 -359 -447 -429 -71 -23 -97 -26 -225 -27 -159 -1 -180 -7 -206 -58 -30 -58 2 -134 66 -160 14 -6 111 -14 215 -18 159 -7 205 -13 278 -34 141 -42 235 -95 341 -195 160 -152 240 -337 253 -584 l6 -117 -457 0 c-490 0 -505 -1 -540 -51 -9 -14 -16 -43 -16 -70 0 -39 5 -53 29 -77 18 -17 45 -32 68 -35 64 -11 1014 -8 1054 3 19 6 46 22 60 36 24 26 24 27 24 242 -1 194 -3 226 -24 307 -79 305 -275 553 -543 689 l-76 38 74 60 c239 190 372 513 336 820 -15 128 -63 271 -128 380 -65 110 -202 247 -312 312 -193 115 -436 160 -647 121z" fill="#ececec"/>
<path d="M2415 3714 c-165 -34 -259 -70 -367 -140 -145 -93 -262 -227 -338 -385 -66 -139 -83 -220 -84 -394 -1 -178 18 -266 89 -410 69 -141 132 -217 289 -348 l29 -24 -74 -38 c-265 -134 -458 -373 -540 -670 -19 -68 -22 -113 -26 -307 l-5 -228 35 -35 35 -35 1092 0 1092 0 35 35 35 35 -5 228 c-4 194 -7 239 -26 307 -82 296 -276 537 -541 671 l-74 38 40 30 c168 130 290 313 345 517 33 119 33 347 1 464 -47 169 -137 320 -264 441 -130 123 -291 206 -466 240 -67 13 -258 18 -307 8z m315 -249 c30 -8 93 -33 140 -56 110 -55 237 -178 292 -284 124 -239 113 -497 -31 -717 -271 -416 -882 -418 -1160 -3 -188 281 -152 634 89 876 73 73 101 94 180 132 52 25 120 50 150 56 30 6 64 13 75 15 37 9 209 -3 265 -19z m63 -1616 c194 -30 385 -141 505 -292 124 -156 182 -327 182 -533 l0 -94 -931 0 -932 0 6 133 c4 105 10 149 32 217 93 295 333 510 630 565 88 16 412 19 508 4z" fill="#ececec"/>
</g>
</svg>