<svg xmlns="http://www.w3.org/2000/svg" version="1.0" width="512.000000pt" height="512.000000pt" viewBox="0 0 512.000000 512.000000" preserveAspectRatio="xMidYMid meet">

<g transform="translate(0.000000,512.000000) scale(0.100000,-0.100000)" fill="#ececec" stroke="none">
<path d="M1891 4604 c-58 -29 -104 -84 -122 -143 -7 -24 -9 -243 -7 -651 3 -685 -1 -639 74 -713 70 -68 60 -67 724 -67 671 0 656 -2 729 72 73 75 72 58 69 749 -3 680 1 639 -70 709 -72 72 -43 70 -729 70 l-615 0 -53 -26z m1114 -399 c32 -31 32 -72 2 -116 -93 -136 -462 -631 -480 -644 -48 -33 -62 -24 -254 167 -164 164 -183 186 -183 216 0 41 38 82 76 82 22 0 56 -28 164 -135 75 -74 140 -135 145 -134 6 0 98 122 205 270 107 149 208 281 223 295 36 31 71 31 102 -1z" fill="#ececec"/>
<path d="M2427 2814 c-134 -30 -263 -105 -352 -206 -54 -62 -118 -187 -140 -273 -19 -77 -19 -234 0 -310 34 -131 122 -270 215 -341 27 -21 47 -41 42 -45 -4 -4 -41 -21 -84 -39 -234 -96 -460 -318 -572 -562 -47 -100 -60 -156 -54 -237 9 -124 84 -228 204 -283 l49 -23 825 0 825 0 67 33 c73 36 124 87 160 161 19 37 23 63 23 136 0 113 -25 190 -101 310 -139 222 -309 373 -524 466 -47 20 -84 40 -83 43 1 4 25 25 53 47 93 73 172 199 205 324 22 84 20 234 -5 329 -54 213 -214 388 -413 452 -104 33 -242 40 -340 18z" fill="#ececec"/>
<path d="M1053 2565 c-228 -50 -396 -266 -396 -510 0 -140 41 -243 141 -348 31 -31 53 -58 51 -60 -2 -2 -24 -12 -49 -23 -148 -64 -340 -241 -414 -383 -93 -178 -87 -311 17 -415 85 -85 94 -86 537 -86 l377 0 5 103 c10 206 109 401 311 614 l69 72 -57 37 c-32 20 -78 45 -104 56 -25 12 -48 22 -50 24 -2 2 16 25 41 52 158 168 192 395 92 599 -39 81 -131 174 -214 217 -116 61 -233 78 -357 51z" fill="#ececec"/>
<path d="M3870 2574 c-140 -27 -259 -102 -334 -209 -56 -80 -85 -150 -95 -236 -21 -160 28 -306 142 -427 28 -29 48 -54 46 -56 -2 -2 -25 -12 -50 -24 -26 -11 -72 -36 -103 -56 l-57 -37 81 -87 c197 -209 299 -425 300 -630 l0 -73 398 3 397 3 49 25 c125 64 181 200 142 345 -49 185 -247 405 -451 501 -33 16 -62 30 -64 31 -2 1 22 30 53 64 96 104 140 216 139 359 -1 273 -213 492 -488 505 -44 2 -91 1 -105 -1z" fill="#ececec"/>
</g>
</svg>