<svg xmlns="http://www.w3.org/2000/svg" version="1.0" width="512.000000pt" height="512.000000pt" viewBox="0 0 512.000000 512.000000" preserveAspectRatio="xMidYMid meet">

<g transform="translate(0.000000,512.000000) scale(0.100000,-0.100000)" fill="#ececec" stroke="none">
<path d="M2425 4423 c-89 -18 -231 -86 -312 -147 -205 -155 -320 -413 -294 -659 7 -64 6 -70 -13 -77 -109 -42 -128 -250 -41 -435 29 -61 95 -139 136 -160 20 -11 39 -39 68 -99 45 -97 84 -157 152 -237 l49 -57 -158 -4 -157 -4 -48 29 c-62 38 -178 74 -260 83 l-65 7 48 71 c94 139 143 301 144 481 1 90 -3 123 -23 183 -78 238 -289 393 -536 394 -251 2 -459 -148 -541 -389 -65 -189 -18 -470 111 -662 l53 -79 -67 -6 c-87 -9 -213 -53 -284 -100 -120 -79 -219 -222 -246 -354 -7 -33 -11 -193 -11 -423 l0 -371 29 -29 29 -29 491 0 491 0 0 -314 0 -315 26 -20 27 -21 1339 0 1339 0 24 25 25 24 0 311 0 310 491 0 491 0 29 29 29 29 0 374 c0 410 -3 436 -61 556 -37 75 -119 167 -196 218 -71 47 -197 91 -284 100 l-67 6 53 79 c92 137 137 293 137 474 0 84 -5 125 -21 175 -47 149 -159 280 -293 344 -341 161 -725 -32 -804 -404 -37 -173 21 -425 135 -595 l48 -71 -81 -11 c-95 -13 -178 -40 -244 -80 l-47 -29 -157 4 -158 4 49 57 c68 80 107 140 152 237 29 60 48 88 68 99 40 20 106 98 135 159 54 114 72 268 40 344 -17 41 -61 92 -80 92 -21 0 -22 12 -8 90 7 41 13 123 14 181 0 182 -46 282 -164 350 -28 17 -82 57 -121 91 -87 75 -240 151 -347 172 -94 19 -171 19 -263 -1z m295 -173 c82 -27 192 -95 249 -154 25 -25 59 -51 77 -56 51 -17 101 -80 110 -136 10 -72 -2 -238 -26 -348 -24 -110 -21 -132 26 -162 21 -14 32 -16 54 -7 16 6 31 8 34 5 13 -12 5 -112 -13 -164 -30 -88 -65 -133 -121 -156 -43 -18 -50 -25 -69 -76 -91 -244 -243 -401 -423 -437 -207 -42 -427 136 -539 437 -19 51 -26 58 -69 76 -78 33 -140 148 -140 261 0 63 4 69 36 55 30 -14 66 1 90 37 16 24 16 30 -2 103 -60 252 28 486 240 637 155 110 324 140 486 85z m-1498 -632 c59 -12 154 -72 196 -124 81 -97 111 -212 93 -353 -27 -214 -125 -382 -260 -448 -74 -37 -200 -40 -272 -7 -142 66 -241 235 -270 461 -25 201 60 368 228 447 90 43 169 50 285 24z m2958 -24 c170 -80 257 -254 230 -457 -29 -214 -125 -379 -259 -444 -48 -24 -68 -28 -141 -28 -73 0 -93 4 -142 28 -140 69 -241 252 -263 477 -21 205 94 382 290 447 25 8 75 12 130 10 76 -2 100 -8 155 -33z m-2562 -1109 c22 -7 16 -12 -55 -53 -99 -57 -234 -191 -291 -287 -22 -38 -53 -106 -68 -150 -26 -74 -28 -96 -34 -280 l-5 -200 -438 -3 -438 -2 3 337 3 338 31 65 c55 115 156 198 284 232 58 16 115 17 525 15 253 -2 471 -7 483 -12z m2881 0 c131 -31 234 -113 293 -232 l33 -68 3 -337 3 -338 -438 2 -438 3 -6 200 c-6 204 -11 231 -56 340 -60 144 -195 295 -339 378 l-78 45 40 7 c21 4 44 8 49 10 6 2 204 4 440 4 350 1 442 -2 494 -14z m-2199 -155 c0 -65 19 -122 52 -157 l20 -22 -77 -538 c-42 -296 -78 -555 -78 -575 -2 -34 5 -45 71 -111 39 -40 72 -76 72 -80 0 -4 -97 -7 -215 -7 l-215 0 0 399 0 400 -23 27 c-33 37 -81 37 -114 0 l-23 -27 0 -400 0 -399 -220 0 -221 0 3 528 c3 518 3 528 25 586 53 138 154 260 279 334 139 83 220 100 472 101 l192 1 0 -60z m358 7 c3 -42 0 -50 -31 -80 -19 -17 -37 -40 -40 -50 -4 -9 30 -272 75 -583 l81 -566 -92 -92 -91 -91 -91 91 -92 92 81 566 c45 311 79 574 75 583 -3 10 -21 32 -39 50 -29 27 -34 39 -34 76 0 24 3 47 7 51 4 4 48 5 98 4 l90 -3 3 -48z m675 21 c200 -67 360 -216 428 -401 23 -61 24 -67 27 -589 l3 -528 -221 0 -220 0 0 399 0 400 -23 27 c-33 37 -81 37 -114 0 l-23 -27 0 -400 0 -399 -215 0 c-118 0 -215 3 -215 7 0 4 33 40 72 80 66 66 73 77 71 111 0 20 -36 279 -78 575 l-77 538 20 22 c34 36 52 92 52 158 l0 61 218 -4 c200 -4 223 -6 295 -30z" fill="#ececec"/>
</g>
</svg>