<svg xmlns="http://www.w3.org/2000/svg" version="1.0" width="512.000000pt" height="512.000000pt" viewBox="0 0 512.000000 512.000000" preserveAspectRatio="xMidYMid meet">

<g transform="translate(0.000000,512.000000) scale(0.100000,-0.100000)" fill="#ececec" stroke="none">
<path d="M2406 4700 c-421 -67 -786 -382 -919 -795 -48 -149 -62 -271 -47 -406 25 -227 107 -410 291 -654 346 -458 555 -957 694 -1660 20 -99 40 -192 46 -207 10 -25 61 -58 89 -58 28 0 79 33 89 58 6 15 24 99 41 187 60 310 152 632 252 885 123 310 248 532 447 795 288 381 361 697 244 1060 -119 372 -438 675 -810 771 -110 28 -314 40 -417 24z m279 -206 c220 -23 473 -180 617 -384 180 -254 223 -529 126 -797 -37 -102 -96 -202 -210 -354 -216 -290 -362 -554 -491 -894 -45 -119 -122 -361 -148 -462 -7 -29 -15 -53 -18 -53 -3 0 -25 68 -49 151 -141 498 -329 882 -625 1279 -112 149 -162 239 -206 363 -34 98 -35 108 -36 242 0 118 4 153 23 220 107 371 434 655 797 694 79 8 101 8 220 -5z" fill="#ececec"/>
<path d="M2453 4190 c-210 -38 -402 -201 -473 -403 -31 -86 -39 -258 -16 -347 53 -211 205 -371 426 -446 42 -15 82 -19 175 -18 106 0 129 4 195 28 183 68 321 207 382 384 19 57 23 87 23 197 0 110 -4 140 -23 197 -64 184 -225 337 -412 392 -68 20 -208 28 -277 16z m279 -237 c256 -120 316 -457 116 -656 -237 -237 -634 -106 -691 228 -21 120 24 257 114 346 85 86 175 120 304 116 77 -2 100 -7 157 -34z" fill="#ececec"/>
<path d="M1925 1594 c-305 -47 -595 -136 -762 -236 -83 -49 -178 -141 -208 -201 -149 -306 210 -580 910 -692 256 -41 382 -50 710 -49 313 0 462 11 695 50 433 72 755 214 868 383 182 274 -59 538 -623 680 -133 33 -304 65 -407 76 l-68 7 -35 -35 c-27 -27 -35 -43 -35 -72 0 -46 42 -91 91 -99 236 -37 312 -51 414 -78 223 -57 371 -125 457 -208 49 -47 58 -62 58 -91 0 -171 -453 -342 -1060 -399 -260 -25 -745 -10 -1000 31 -377 60 -698 183 -776 298 -40 60 -33 96 30 158 118 113 375 208 711 262 72 12 145 24 162 27 50 8 83 42 90 91 5 39 2 46 -30 78 -40 40 -50 41 -192 19z" fill="#ececec"/>
</g>
</svg>