<svg xmlns="http://www.w3.org/2000/svg" version="1.0" width="512.000000pt" height="512.000000pt" viewBox="0 0 512.000000 512.000000" preserveAspectRatio="xMidYMid meet">

<g transform="translate(0.000000,512.000000) scale(0.100000,-0.100000)" fill="#ececec" stroke="none">
<path d="M2359 4740 c-510 -81 -932 -438 -1092 -925 -63 -191 -84 -420 -53 -575 41 -203 168 -494 339 -777 l86 -143 -417 0 c-385 0 -420 -2 -457 -19 -43 -20 -76 -48 -100 -84 -18 -28 -465 -1598 -465 -1635 0 -80 52 -160 125 -193 38 -18 133 -19 2235 -19 2102 0 2197 1 2235 19 73 33 125 113 125 193 0 15 -102 386 -227 825 -217 763 -228 799 -262 836 -70 77 -63 77 -533 77 l-417 0 86 143 c171 283 298 574 339 777 20 101 15 301 -10 420 -56 258 -177 488 -355 673 -187 194 -400 317 -665 383 -85 22 -129 26 -281 29 -99 2 -205 0 -236 -5z m484 -263 c111 -30 255 -95 347 -157 84 -57 208 -177 269 -259 175 -235 258 -559 207 -802 -59 -278 -305 -723 -677 -1226 -177 -240 -413 -533 -429 -533 -25 0 -440 537 -622 805 -271 398 -451 759 -489 980 -17 100 -6 268 26 390 48 184 140 348 272 485 166 175 353 279 588 330 133 29 371 23 508 -13z m-945 -2532 c222 -305 565 -724 607 -743 33 -15 77 -15 110 0 42 19 385 438 607 743 l95 130 468 0 468 0 203 -710 c112 -390 205 -720 209 -732 l5 -23 -2110 0 c-2006 0 -2111 1 -2106 18 3 9 95 334 206 722 110 388 203 711 205 718 4 10 103 12 471 10 l467 -3 95 -130z" fill="#ececec"/>
<path d="M2418 4004 c-195 -47 -369 -213 -430 -409 -29 -91 -30 -242 -4 -330 57 -191 201 -344 384 -407 56 -19 87 -23 192 -23 105 0 136 4 192 23 176 61 324 215 381 397 30 97 30 243 -1 340 -61 199 -236 363 -434 410 -78 18 -204 18 -280 -1z m285 -252 c70 -31 149 -111 183 -185 23 -51 28 -76 28 -142 1 -69 -4 -89 -31 -147 -61 -129 -165 -199 -305 -206 -88 -5 -150 12 -222 59 -135 90 -190 286 -123 434 44 94 127 171 220 201 61 20 190 13 250 -14z" fill="#ececec"/>
</g>
</svg>