<svg xmlns="http://www.w3.org/2000/svg" version="1.0" width="512.000000pt" height="512.000000pt" viewBox="0 0 512.000000 512.000000" preserveAspectRatio="xMidYMid meet">

<g transform="translate(0.000000,512.000000) scale(0.100000,-0.100000)" fill="#ececec" stroke="none">
<path d="M2393 4785 c-95 -17 -163 -40 -255 -85 -113 -56 -163 -93 -263 -195 -169 -171 -257 -369 -272 -611 -28 -456 274 -864 727 -985 69 -19 111 -23 230 -23 173 0 262 19 409 90 209 99 355 246 456 455 183 381 95 826 -220 1117 -216 199 -525 289 -812 237z" fill="#ececec"/>
<path d="M2100 2554 c-14 -2 -59 -9 -100 -15 -502 -74 -957 -464 -1125 -964 -66 -195 -68 -213 -72 -757 l-4 -498 1761 0 1762 0 -5 498 c-4 461 -6 504 -25 589 -68 297 -191 523 -397 729 -253 254 -573 399 -927 420 -123 8 -164 -2 -207 -51 -57 -65 -59 -51 109 -724 l153 -613 -232 -231 -231 -232 -231 232 -232 231 153 613 c123 494 152 621 146 651 -8 46 -49 96 -93 114 -30 13 -140 17 -203 8z" fill="#ececec"/>
</g>
</svg>