<svg xmlns="http://www.w3.org/2000/svg" version="1.0" width="512.000000pt" height="512.000000pt" viewBox="0 0 512.000000 512.000000" preserveAspectRatio="xMidYMid meet">
<metadata fill="#ececec">
Created by potrace 1.16, written by Peter Selinger 2001-2019
</metadata>
<g transform="translate(0.000000,512.000000) scale(0.100000,-0.100000)" fill="#ececec" stroke="none">
<path d="M496 4615 c-88 -36 -144 -89 -191 -180 l-40 -78 0 -1797 0 -1797 40 -79 c47 -91 110 -150 199 -183 l57 -21 1904 0 1904 0 79 25 c199 63 355 236 397 443 13 63 15 208 13 1035 l-3 962 -32 67 c-61 129 -38 115 -897 545 l-775 387 -3 211 c-3 203 -4 212 -30 267 -35 76 -95 138 -170 179 l-63 34 -1165 2 -1165 3 -59 -25z m2307 -314 c16 -12 17 -147 17 -1757 l0 -1744 -210 0 -210 0 0 426 c0 298 -4 439 -12 466 -16 55 -83 126 -143 154 l-50 24 -480 0 c-300 0 -494 -4 -517 -10 -53 -15 -118 -68 -153 -125 l-30 -48 -3 -444 -3 -444 -195 3 c-180 3 -197 5 -210 22 -12 17 -14 271 -14 1736 0 1790 -1 1738 40 1753 8 3 497 5 1086 4 891 -2 1074 -4 1087 -16z m1029 -1068 c369 -185 677 -343 684 -351 22 -21 21 -1816 -1 -1889 -20 -66 -80 -134 -147 -164 l-53 -24 -582 -3 -583 -3 0 1386 c0 762 3 1385 6 1385 3 0 307 -152 676 -337z m-1752 -2063 l0 -370 -370 0 -370 0 0 370 0 370 370 0 370 0 0 -370z" fill="#ececec"/>
<path d="M1100 3878 c-61 -32 -83 -66 -88 -135 -3 -49 0 -64 20 -93 13 -19 39 -45 57 -57 32 -22 44 -23 191 -23 147 0 159 1 191 23 18 12 44 38 57 57 20 29 23 44 20 93 -5 69 -27 103 -88 135 -39 20 -59 22 -180 22 -121 0 -141 -2 -180 -22z" fill="#ececec"/>
<path d="M1950 3878 c-50 -26 -90 -89 -90 -143 0 -41 38 -114 73 -139 25 -19 46 -21 187 -24 143 -3 162 -1 198 17 108 55 113 208 9 285 -25 19 -45 21 -180 24 -142 3 -155 1 -197 -20z" fill="#ececec"/>
<path d="M1100 3238 c-61 -32 -83 -66 -88 -135 -3 -49 0 -64 20 -93 13 -19 39 -45 57 -57 32 -22 44 -23 191 -23 147 0 159 1 191 23 18 12 44 38 57 57 20 29 23 44 20 93 -5 69 -27 103 -88 135 -39 20 -59 22 -180 22 -121 0 -141 -2 -180 -22z" fill="#ececec"/>
<path d="M1950 3238 c-50 -26 -90 -89 -90 -143 0 -41 38 -114 73 -139 25 -19 46 -21 187 -24 143 -3 162 -1 198 17 108 55 113 208 9 285 -25 19 -45 21 -180 24 -142 3 -155 1 -197 -20z" fill="#ececec"/>
<path d="M1100 2598 c-61 -32 -83 -66 -88 -135 -3 -49 0 -64 20 -93 13 -19 39 -45 57 -57 32 -22 44 -23 191 -23 147 0 159 1 191 23 18 12 44 38 57 57 20 29 23 44 20 93 -5 69 -27 103 -88 135 -39 20 -59 22 -180 22 -121 0 -141 -2 -180 -22z" fill="#ececec"/>
<path d="M1950 2598 c-50 -26 -90 -89 -90 -143 0 -41 38 -114 73 -139 25 -19 46 -21 187 -24 143 -3 162 -1 198 17 108 55 113 208 9 285 -25 19 -45 21 -180 24 -142 3 -155 1 -197 -20z" fill="#ececec"/>
<path d="M3554 2710 c-33 -13 -82 -77 -90 -115 -9 -50 3 -100 33 -135 49 -59 57 -60 346 -60 257 0 265 1 297 23 57 38 75 71 75 137 0 66 -18 99 -75 138 -32 21 -39 22 -299 21 -146 0 -275 -4 -287 -9z" fill="#ececec"/>
<path d="M3554 2070 c-33 -13 -82 -77 -90 -115 -9 -50 3 -100 33 -135 49 -59 57 -60 346 -60 257 0 265 1 297 23 57 38 75 71 75 137 0 66 -18 99 -75 138 -32 21 -39 22 -299 21 -146 0 -275 -4 -287 -9z" fill="#ececec"/>
<path d="M3554 1430 c-33 -13 -82 -77 -90 -115 -9 -50 3 -100 33 -135 49 -59 57 -60 346 -60 257 0 265 1 297 23 57 38 75 71 75 137 0 66 -18 99 -75 138 -32 21 -39 22 -299 21 -146 0 -275 -4 -287 -9z" fill="#ececec"/>
</g>
</svg>