<svg xmlns="http://www.w3.org/2000/svg" version="1.0" width="512.000000pt" height="512.000000pt" viewBox="0 0 512.000000 512.000000" preserveAspectRatio="xMidYMid meet">

<g transform="translate(0.000000,512.000000) scale(0.100000,-0.100000)" fill="#ececec" stroke="none">
<path d="M1342 5097 c-21 -23 -22 -30 -22 -269 l0 -245 -86 -7 c-121 -9 -182 -45 -230 -136 -18 -34 -19 -104 -22 -1983 l-2 -1947 -166 0 c-228 0 -214 17 -214 -255 0 -205 0 -206 25 -230 l24 -25 1911 0 1911 0 24 25 c25 24 25 25 25 230 0 272 14 255 -214 255 l-166 0 -2 1947 c-3 1879 -4 1949 -22 1983 -26 49 -64 88 -111 113 -40 22 -45 22 -707 25 l-668 3 0 248 c0 246 0 248 -23 269 l-23 22 -610 0 -611 0 -21 -23z m1148 -317 l0 -200 -515 0 -515 0 0 200 0 200 515 0 515 0 0 -200z m1477 -373 l28 -27 3 -1935 2 -1935 -460 0 -460 0 0 380 0 380 98 0 c149 0 142 -10 142 222 0 164 -2 194 -17 210 -15 17 -51 18 -743 18 -726 0 -727 0 -746 -21 -17 -19 -19 -38 -19 -206 0 -230 -4 -223 146 -223 l99 0 0 -380 0 -380 -460 0 -460 0 0 1929 0 1929 25 31 c14 16 36 32 48 34 12 2 635 4 1384 3 l1363 -1 27 -28z m-787 -2912 l0 -85 -620 0 -620 0 0 85 0 85 620 0 620 0 0 -85z m-240 -605 l0 -380 -380 0 -380 0 0 380 0 380 380 0 380 0 0 -380z m1440 -635 l0 -115 -1820 0 -1820 0 0 115 0 115 1820 0 1820 0 0 -115z" fill="#ececec"/>
<path d="M1429 4169 c-44 -16 -49 -44 -49 -265 0 -204 0 -205 25 -229 l24 -25 429 0 c408 0 431 1 453 19 24 19 24 20 24 240 0 216 0 221 -23 243 l-23 23 -417 2 c-250 1 -427 -2 -443 -8z m761 -254 l0 -125 -335 0 -335 0 0 118 c0 65 3 122 7 125 3 4 154 7 335 7 l328 0 0 -125z" fill="#ececec"/>
<path d="M2835 4170 c-48 -19 -50 -30 -50 -262 0 -219 0 -220 24 -239 22 -18 45 -19 453 -19 l429 0 24 25 c25 24 25 25 25 229 0 225 -5 249 -53 266 -36 12 -821 13 -852 0z m763 -257 l3 -123 -336 0 -335 0 0 125 0 125 333 -2 332 -3 3 -122z" fill="#ececec"/>
<path d="M1401 3314 c-20 -25 -21 -39 -21 -234 0 -195 1 -209 21 -234 l20 -26 438 0 c432 0 438 0 457 21 17 19 19 39 19 239 0 200 -2 220 -19 239 -19 21 -25 21 -457 21 l-438 0 -20 -26z m789 -234 l0 -120 -335 0 -335 0 0 120 0 120 335 0 335 0 0 -120z" fill="#ececec"/>
<path d="M2804 3319 c-17 -19 -19 -39 -19 -239 0 -200 2 -220 19 -239 19 -21 25 -21 457 -21 l438 0 20 26 c20 25 21 39 21 234 0 195 -1 209 -21 234 l-20 26 -438 0 c-432 0 -438 0 -457 -21z m796 -239 l0 -120 -335 0 -335 0 0 120 0 120 335 0 335 0 0 -120z" fill="#ececec"/>
<path d="M1401 2484 c-20 -25 -21 -39 -21 -231 0 -199 5 -236 34 -255 6 -4 207 -8 447 -8 431 0 436 0 455 21 17 19 19 39 19 241 0 219 0 220 -24 239 -22 18 -45 19 -456 19 l-434 0 -20 -26z m789 -234 l0 -120 -335 0 -335 0 0 120 0 120 335 0 335 0 0 -120z" fill="#ececec"/>
<path d="M2809 2491 c-24 -19 -24 -20 -24 -239 0 -202 2 -222 19 -241 19 -21 24 -21 455 -21 240 0 441 4 447 8 29 19 34 56 34 255 0 192 -1 206 -21 231 l-20 26 -434 0 c-411 0 -434 -1 -456 -19z m791 -241 l0 -120 -335 0 -335 0 0 120 0 120 335 0 335 0 0 -120z" fill="#ececec"/>
</g>
</svg>