<?xml version="1.0" standalone="no"?>
<!DOCTYPE svg PUBLIC "-//W3C//DTD SVG 20010904//EN"
 "http://www.w3.org/TR/2001/REC-SVG-20010904/DTD/svg10.dtd">
<svg version="1.0" xmlns="http://www.w3.org/2000/svg"
 width="96.000000pt" height="96.000000pt" viewBox="0 0 96.000000 96.000000"
 preserveAspectRatio="xMidYMid meet">
<metadata>
Created by potrace 1.16, written by Peter Selinger 2001-2019
</metadata>
<g transform="translate(0.000000,96.000000) scale(0.100000,-0.100000)"
fill="#000000" stroke="none">
<path d="M185 855 c-24 -23 -25 -28 -25 -177 0 -142 -1 -154 -20 -166 -18 -11
-20 -23 -20 -152 0 -129 2 -141 20 -152 13 -9 20 -24 20 -46 0 -22 8 -41 25
-58 l24 -24 268 2 268 3 3 39 c3 34 1 38 -15 30 -20 -10 -445 -18 -480 -9 -16
4 -23 13 -23 30 l0 25 222 0 c173 0 219 3 210 12 -7 7 -12 20 -12 30 0 17 -15
18 -230 18 l-230 0 0 100 0 100 295 0 295 0 0 -25 c0 -22 4 -25 36 -25 l37 0
-6 41 c-3 22 -12 48 -20 57 -8 9 -17 37 -20 61 -5 41 -16 55 -139 178 l-133
133 -163 0 c-160 0 -163 0 -187 -25z m295 -140 c0 -99 2 -107 25 -130 23 -23
31 -25 130 -25 98 0 105 -1 105 -20 0 -19 -7 -20 -255 -20 l-255 0 0 144 c0
106 3 146 13 149 6 3 63 6 125 6 l112 1 0 -105z"/>
<path d="M300 360 c0 -73 2 -80 20 -80 13 0 20 7 20 20 0 15 7 20 28 20 37 0
52 17 52 60 0 48 -15 60 -72 60 l-48 0 0 -80z"/>
<path d="M440 360 l0 -80 40 0 c27 0 47 7 60 20 13 13 20 33 20 60 0 27 -7 47
-20 60 -13 13 -33 20 -60 20 l-40 0 0 -80z"/>
<path d="M732 327 c-37 -37 -52 -60 -52 -80 0 -23 4 -27 27 -27 15 0 37 10 50
22 l23 21 0 -111 0 -112 29 0 c36 0 41 16 41 129 0 81 1 83 18 68 10 -10 31
-17 45 -17 23 0 27 4 27 28 0 20 -14 42 -53 80 -69 68 -87 68 -155 -1z"/>
</g>
</svg>
