<?xml version="1.0" standalone="no"?>
<!DOCTYPE svg PUBLIC "-//W3C//DTD SVG 20010904//EN"
 "http://www.w3.org/TR/2001/REC-SVG-20010904/DTD/svg10.dtd">
<svg version="1.0" xmlns="http://www.w3.org/2000/svg"
 width="48.000000pt" height="48.000000pt" viewBox="0 0 48.000000 48.000000"
 preserveAspectRatio="xMidYMid meet">
<metadata>
Created by potrace 1.16, written by Peter Selinger 2001-2019
</metadata>
<g transform="translate(0.000000,48.000000) scale(0.100000,-0.100000)"
fill="#000000" stroke="none">
<path d="M87 433 c-4 -3 -7 -44 -7 -90 0 -49 -4 -83 -10 -83 -6 0 -10 -33 -10
-80 0 -44 4 -80 9 -80 5 0 11 -12 13 -27 l3 -28 143 -3 c130 -2 142 -1 142 15
0 16 -10 18 -118 15 -98 -3 -120 -1 -131 12 -12 14 -2 16 98 16 92 0 111 3
111 15 0 13 -20 15 -120 15 l-120 0 0 50 0 50 150 0 c127 0 150 -2 150 -15 0
-8 7 -15 15 -15 10 0 15 10 15 30 0 17 -4 30 -10 30 -5 0 -10 13 -10 28 0 21
-16 43 -63 90 l-63 62 -90 0 c-50 0 -94 -3 -97 -7z m155 -85 l3 -63 63 -3 c34
-2 62 -7 62 -12 0 -6 -54 -10 -130 -10 l-130 0 0 63 c0 36 5 68 12 75 7 7 36
12 65 12 l52 0 3 -62z"/>
</g>
</svg>
