<svg xmlns="http://www.w3.org/2000/svg" version="1.0" width="512.000000pt" height="512.000000pt" viewBox="0 0 512.000000 512.000000" preserveAspectRatio="xMidYMid meet">
<metadata fill="#ececec">
Created by potrace 1.16, written by Peter Selinger 2001-2019
</metadata>
<g transform="translate(0.000000,512.000000) scale(0.100000,-0.100000)" fill="#ececec" stroke="none">
<path d="M2206 4629 c-364 -39 -563 -208 -630 -532 -19 -90 -40 -412 -32 -480 7 -65 38 -111 90 -136 54 -27 91 -26 146 2 78 39 86 61 94 254 19 447 71 525 376 565 135 18 1765 18 1900 0 253 -33 327 -103 362 -339 19 -126 19 -1400 0 -1526 -35 -238 -114 -311 -365 -337 -56 -6 -286 -14 -510 -18 l-408 -7 -39 -41 c-62 -67 -66 -154 -10 -218 52 -59 44 -58 562 -53 440 4 480 6 573 26 267 59 428 206 495 453 42 158 45 219 45 968 -1 787 -3 831 -63 1004 -73 211 -230 342 -477 397 -99 23 -105 23 -1065 25 -531 1 -1001 -2 -1044 -7z" fill="#ececec"/>
<path d="M2478 3770 c-104 -55 -107 -208 -5 -284 28 -21 34 -21 727 -21 693 0 699 0 727 21 50 37 73 81 73 142 0 68 -27 115 -81 142 -37 19 -61 20 -721 20 -655 -1 -685 -2 -720 -20z" fill="#ececec"/>
<path d="M1435 3131 c-250 -62 -445 -252 -512 -501 -27 -103 -23 -283 9 -382 39 -118 92 -204 177 -288 87 -85 156 -129 263 -168 67 -25 85 -27 228 -27 143 0 161 2 228 27 107 39 176 83 263 168 85 84 138 170 177 288 32 99 36 279 9 382 -68 253 -270 446 -524 504 -92 20 -228 19 -318 -3z m317 -345 c159 -76 246 -253 204 -416 -29 -111 -93 -192 -199 -248 -47 -24 -62 -27 -157 -27 -95 0 -110 3 -157 27 -106 56 -170 137 -199 248 -45 178 57 364 238 431 77 28 193 22 270 -15z" fill="#ececec"/>
<path d="M3140 2929 c-63 -26 -100 -85 -100 -160 0 -65 28 -112 81 -139 36 -19 60 -20 399 -20 339 0 363 1 399 20 107 54 111 208 8 284 -28 20 -40 21 -395 23 -230 1 -376 -2 -392 -8z" fill="#ececec"/>
<path d="M2692 2063 c-40 -20 -55 -41 -98 -140 -52 -118 -93 -181 -174 -263 -90 -92 -178 -140 -318 -176 -89 -24 -124 -26 -427 -35 -514 -14 -631 -29 -816 -100 -160 -62 -334 -204 -439 -359 -23 -34 -68 -115 -99 -179 -48 -99 -56 -124 -56 -173 0 -64 19 -97 76 -136 29 -20 44 -23 94 -20 90 6 109 23 171 156 117 248 252 374 464 431 119 32 205 39 535 46 171 4 362 13 426 21 278 34 480 130 646 307 83 90 134 167 202 306 48 100 56 124 56 173 -1 64 -19 97 -75 136 -40 27 -119 30 -168 5z" fill="#ececec"/>
</g>
</svg>