<svg xmlns="http://www.w3.org/2000/svg" version="1.0" width="512.000000pt" height="512.000000pt" viewBox="0 0 512.000000 512.000000" preserveAspectRatio="xMidYMid meet">
<metadata fill="#ececec">
Created by potrace 1.16, written by Peter Selinger 2001-2019
</metadata>
<g transform="translate(0.000000,512.000000) scale(0.100000,-0.100000)" fill="#ececec" stroke="none">
<path d="M893 4303 c-29 -6 -70 -48 -76 -79 -2 -15 0 -42 5 -61 13 -49 57 -73 136 -73 l62 0 0 -374 0 -374 26 -31 c43 -51 115 -51 163 0 21 22 21 31 21 401 l0 378 1430 0 1430 0 0 -1020 0 -1020 -481 0 -481 0 -29 -29 c-39 -39 -41 -106 -5 -148 l24 -28 654 -3 c479 -2 660 1 681 9 52 22 71 92 42 149 -21 41 -43 50 -119 50 l-66 0 0 1019 0 1019 71 4 c66 3 74 6 101 37 26 30 30 39 25 78 -6 53 -28 79 -76 93 -35 10 -3488 13 -3538 3z" fill="#ececec"/>
<path d="M2298 3674 c-36 -19 -48 -43 -48 -94 0 -33 6 -48 29 -71 l29 -29 661 0 660 0 26 23 c51 44 42 143 -16 172 -42 22 -1301 21 -1341 -1z" fill="#ececec"/>
<path d="M1891 3266 c-58 -32 -69 -119 -22 -167 l29 -29 862 0 c572 0 868 3 881 10 24 13 49 61 49 95 0 38 -24 79 -55 93 -40 18 -1711 16 -1744 -2z" fill="#ececec"/>
<path d="M1243 3070 c-215 -39 -384 -200 -429 -409 -19 -91 -17 -154 6 -245 25 -99 69 -177 140 -246 205 -203 543 -201 745 4 162 164 200 404 98 615 -55 114 -192 227 -320 266 -63 19 -176 26 -240 15z m220 -239 c190 -92 240 -335 101 -490 -152 -170 -411 -133 -516 73 -29 57 -36 167 -14 234 29 87 119 171 216 203 45 15 164 4 213 -20z" fill="#ececec"/>
<path d="M3317 2850 c-14 -11 -308 -358 -653 -770 -346 -413 -631 -750 -634 -750 -3 0 -15 26 -25 58 -42 122 -171 279 -289 351 -171 103 -376 134 -567 86 -35 -9 -102 -35 -149 -58 -111 -54 -247 -185 -302 -292 -68 -132 -81 -189 -85 -390 -3 -112 -1 -190 6 -207 14 -37 54 -61 103 -61 34 0 47 6 70 32 27 31 28 34 28 149 1 245 36 358 150 477 199 207 519 208 722 2 67 -68 121 -171 137 -261 6 -33 11 -122 11 -197 0 -129 2 -140 23 -164 43 -50 126 -49 166 1 16 21 21 41 21 89 l0 63 705 842 c388 463 710 850 715 860 13 24 13 86 0 111 -26 47 -110 63 -153 29z" fill="#ececec"/>
</g>
</svg>