<?xml version="1.0" standalone="no"?>
<!DOCTYPE svg PUBLIC "-//W3C//DTD SVG 20010904//EN"
 "http://www.w3.org/TR/2001/REC-SVG-20010904/DTD/svg10.dtd">
<svg version="1.0" xmlns="http://www.w3.org/2000/svg"
 width="512.000000pt" height="512.000000pt" viewBox="0 0 512.000000 512.000000"
 preserveAspectRatio="xMidYMid meet">

<g transform="translate(0.000000,512.000000) scale(0.100000,-0.100000)"
fill="#000000" stroke="none">
<path d="M1461 4654 c-19 -24 -21 -40 -21 -155 l0 -129 -270 0 c-322 0 -380
-9 -520 -77 -79 -39 -109 -61 -181 -132 -71 -72 -93 -102 -132 -181 -82 -168
-78 -78 -75 -1600 l3 -1345 27 -80 c39 -114 92 -199 178 -285 115 -114 235
-175 395 -200 48 -7 583 -10 1725 -8 1854 4 1690 -3 1855 77 182 90 320 262
372 466 17 66 18 156 18 1405 0 1246 -1 1340 -18 1411 -58 246 -238 441 -482
520 -65 21 -93 23 -375 28 l-305 6 -5 138 c-4 122 -7 140 -24 153 -29 21 -70
17 -94 -9 -20 -21 -22 -34 -22 -155 l0 -132 -959 0 -959 0 -4 136 c-3 129 -4
137 -27 155 -34 27 -75 24 -100 -7z m-21 -579 c0 -142 1 -147 25 -170 27 -28
42 -30 79 -14 37 17 46 57 46 200 l0 129 960 0 960 0 0 -145 c0 -142 1 -147
25 -170 13 -14 31 -25 40 -25 20 0 57 19 67 34 4 6 8 77 8 159 l0 147 283 0
c313 0 353 -5 461 -63 34 -18 92 -63 131 -102 119 -120 165 -243 165 -452 l0
-113 -2140 0 -2140 0 0 133 c0 82 6 152 15 186 49 187 206 345 392 396 34 9
131 13 336 14 l287 1 0 -145z m3248 -1877 c-3 -1138 -3 -1143 -24 -1198 -69
-180 -179 -294 -349 -361 l-60 -24 -1670 -3 c-1205 -2 -1687 0 -1730 8 -196
37 -369 198 -429 399 -14 49 -16 175 -16 1188 l0 1133 2140 0 2140 0 -2 -1142z"/>
<path d="M1020 2817 c-45 -16 -80 -68 -80 -119 0 -78 51 -131 126 -131 50 0
87 22 114 66 62 101 -45 224 -160 184z"/>
<path d="M1760 2817 c-45 -16 -80 -68 -80 -119 0 -78 51 -131 126 -131 50 0
87 22 114 66 62 101 -45 224 -160 184z"/>
<path d="M2500 2817 c-45 -16 -80 -68 -80 -119 0 -78 51 -131 126 -131 50 0
87 22 114 66 62 101 -45 224 -160 184z"/>
<path d="M3240 2817 c-45 -16 -80 -68 -80 -119 0 -78 51 -131 126 -131 50 0
87 22 114 66 62 101 -45 224 -160 184z"/>
<path d="M3980 2817 c-45 -16 -80 -68 -80 -119 0 -78 51 -131 126 -131 50 0
87 22 114 66 62 101 -45 224 -160 184z"/>
<path d="M1013 2146 c-91 -41 -98 -187 -11 -232 88 -46 182 4 194 103 12 92
-96 168 -183 129z"/>
<path d="M1753 2146 c-91 -41 -98 -187 -11 -232 88 -46 182 4 194 103 12 92
-96 168 -183 129z"/>
<path d="M2493 2146 c-91 -41 -98 -187 -11 -232 88 -46 182 4 194 103 12 92
-96 168 -183 129z"/>
<path d="M3233 2146 c-91 -41 -98 -187 -11 -232 88 -46 182 4 194 103 12 92
-96 168 -183 129z"/>
<path d="M3973 2146 c-91 -41 -98 -187 -11 -232 88 -46 182 4 194 103 12 92
-96 168 -183 129z"/>
<path d="M1015 1476 c-47 -21 -67 -51 -73 -104 -8 -90 41 -142 134 -142 39 0
51 5 79 33 44 44 55 98 29 146 -36 66 -109 95 -169 67z"/>
<path d="M1755 1476 c-47 -21 -67 -51 -73 -104 -8 -90 41 -142 134 -142 39 0
51 5 79 33 44 44 55 98 29 146 -36 66 -109 95 -169 67z"/>
<path d="M2495 1476 c-47 -21 -67 -51 -73 -104 -8 -90 41 -142 134 -142 39 0
51 5 79 33 44 44 55 98 29 146 -36 66 -109 95 -169 67z"/>
</g>
</svg>
